# Aspose.3D Wavefront OBJ Exporter
# Copyright 2004-2024 Aspose Pty Ltd.
# File created: 05/19/2024 22:18:24

mtllib material.lib
g cube

#
# object cube
#

v 9.375 25 9.375
v 9.375 25 -9.375
v 9.375 6.25 9.375
v 9.375 6.25 -9.375
v -9.375 25 -9.375
v -9.375 25 9.375
v -9.375 6.25 -9.375
v -9.375 6.25 9.375
# 8 vertices

vn 0 0 -1
vn 1 0 0
vn 0 0 1
vn -1 0 0
vn 0 1 0
vn 0 -1 0
# 6 vertex normals

vt 0.1875 0.625 0
vt 0.375 0.625 0
vt 0.375 0.8125 0
vt 0.1875 0.8125 0
vt 0 0.625 0
vt 0.1875 0.625 0
vt 0.1875 0.8125 0
vt 0 0.8125 0
vt 0.5625 0.625 0
vt 0.75 0.625 0
vt 0.75 0.8125 0
vt 0.5625 0.8125 0
vt 0.375 0.625 0
vt 0.5625 0.625 0
vt 0.5625 0.8125 0
vt 0.375 0.8125 0
vt 0.375 1 0
vt 0.1875 1 0
vt 0.1875 0.8125 0
vt 0.375 0.8125 0
vt 0.5625 0.8125 0
vt 0.375 0.8125 0
vt 0.375 1 0
vt 0.5625 1 0
# 24 texture coords

usemtl texture.png Pogo.png
s 1
f 4/1/1 7/2/1 5/3/1 2/4/1
f 3/5/2 4/6/2 2/7/2 1/8/2
f 8/9/3 3/10/3 1/11/3 6/12/3
f 7/13/4 8/14/4 6/15/4 5/16/4
f 6/17/5 1/18/5 2/19/5 5/20/5
f 7/21/6 4/22/6 3/23/6 8/24/6
#6 polygons

g cube_1

#
# object cube_1
#

v 7.8125 6.25 4.6875
v 7.8125 6.25 -1.5625
v 7.8125 4.6875 4.6875
v 7.8125 4.6875 -1.5625
v 1.5625 6.25 -1.5625
v 1.5625 6.25 4.6875
v 1.5625 4.6875 -1.5625
v 1.5625 4.6875 4.6875
# 8 vertices

vn 0 0 -1
vn 1 0 0
vn 0 0 1
vn -1 0 0
vn 0 1 0
vn 0 -1 0
# 6 vertex normals

vt 0.640625 0.46875 0
vt 0.703125 0.46875 0
vt 0.703125 0.484375 0
vt 0.640625 0.484375 0
vt 0.578125 0.46875 0
vt 0.640625 0.46875 0
vt 0.640625 0.484375 0
vt 0.578125 0.484375 0
vt 0.765625 0.46875 0
vt 0.828125 0.46875 0
vt 0.828125 0.484375 0
vt 0.765625 0.484375 0
vt 0.703125 0.46875 0
vt 0.765625 0.46875 0
vt 0.765625 0.484375 0
vt 0.703125 0.484375 0
vt 0.703125 0.546875 0
vt 0.640625 0.546875 0
vt 0.640625 0.484375 0
vt 0.703125 0.484375 0
vt 0.765625 0.484375 0
vt 0.703125 0.484375 0
vt 0.703125 0.546875 0
vt 0.765625 0.546875 0
# 24 texture coords

usemtl texture.png Pogo.png
s 2
f 12/25/7 15/26/7 13/27/7 10/28/7
f 11/29/8 12/30/8 10/31/8 9/32/8
f 16/33/9 11/34/9 9/35/9 14/36/9
f 15/37/10 16/38/10 14/39/10 13/40/10
f 14/41/11 9/42/11 10/43/11 13/44/11
f 15/45/12 12/46/12 11/47/12 16/48/12
#6 polygons

g cube_2

#
# object cube_2
#

v 7.8125 4.6875 4.6875
v 7.8125 4.6875 -4.6875
v 7.8125 0 4.6875
v 7.8125 0 -4.6875
v 1.5625 4.6875 -4.6875
v 1.5625 4.6875 4.6875
v 1.5625 0 -4.6875
v 1.5625 0 4.6875
# 8 vertices

vn 0 0 -1
vn 1 0 0
vn 0 0 1
vn -1 0 0
vn 0 1 0
vn 0 -1 0
# 6 vertex normals

vt 0.40625 0.484375 0
vt 0.46875 0.484375 0
vt 0.46875 0.53125 0
vt 0.40625 0.53125 0
vt 0.3125 0.484375 0
vt 0.40625 0.484375 0
vt 0.40625 0.53125 0
vt 0.3125 0.53125 0
vt 0.5625 0.484375 0
vt 0.625 0.484375 0
vt 0.625 0.53125 0
vt 0.5625 0.53125 0
vt 0.46875 0.484375 0
vt 0.5625 0.484375 0
vt 0.5625 0.53125 0
vt 0.46875 0.53125 0
vt 0.46875 0.625 0
vt 0.40625 0.625 0
vt 0.40625 0.53125 0
vt 0.46875 0.53125 0
vt 0.53125 0.53125 0
vt 0.46875 0.53125 0
vt 0.46875 0.625 0
vt 0.53125 0.625 0
# 24 texture coords

usemtl texture.png Pogo.png
s 4
f 20/49/13 23/50/13 21/51/13 18/52/13
f 19/53/14 20/54/14 18/55/14 17/56/14
f 24/57/15 19/58/15 17/59/15 22/60/15
f 23/61/16 24/62/16 22/63/16 21/64/16
f 22/65/17 17/66/17 18/67/17 21/68/17
f 23/69/18 20/70/18 19/71/18 24/72/18
#6 polygons

g cube_3

#
# object cube_3
#

v -1.5625 4.6875 4.6875
v -1.5625 4.6875 -4.6875
v -1.5625 0 4.6875
v -1.5625 0 -4.6875
v -7.8125 4.6875 -4.6875
v -7.8125 4.6875 4.6875
v -7.8125 0 -4.6875
v -7.8125 0 4.6875
# 8 vertices

vn 0 0 -1
vn 1 0 0
vn 0 0 1
vn -1 0 0
vn 0 1 0
vn 0 -1 0
# 6 vertex normals

vt 0.09375 0.484375 0
vt 0.15625 0.484375 0
vt 0.15625 0.53125 0
vt 0.09375 0.53125 0
vt 0 0.484375 0
vt 0.09375 0.484375 0
vt 0.09375 0.53125 0
vt 0 0.53125 0
vt 0.25 0.484375 0
vt 0.3125 0.484375 0
vt 0.3125 0.53125 0
vt 0.25 0.53125 0
vt 0.15625 0.484375 0
vt 0.25 0.484375 0
vt 0.25 0.53125 0
vt 0.15625 0.53125 0
vt 0.15625 0.625 0
vt 0.09375 0.625 0
vt 0.09375 0.53125 0
vt 0.15625 0.53125 0
vt 0.21875 0.53125 0
vt 0.15625 0.53125 0
vt 0.15625 0.625 0
vt 0.21875 0.625 0
# 24 texture coords

usemtl texture.png Pogo.png
s 8
f 28/73/19 31/74/19 29/75/19 26/76/19
f 27/77/20 28/78/20 26/79/20 25/80/20
f 32/81/21 27/82/21 25/83/21 30/84/21
f 31/85/22 32/86/22 30/87/22 29/88/22
f 30/89/23 25/90/23 26/91/23 29/92/23
f 31/93/24 28/94/24 27/95/24 32/96/24
#6 polygons

g cube_4

#
# object cube_4
#

v -1.5625 6.25 4.6875
v -1.5625 6.25 -1.5625
v -1.5625 4.6875 4.6875
v -1.5625 4.6875 -1.5625
v -7.8125 6.25 -1.5625
v -7.8125 6.25 4.6875
v -7.8125 4.6875 -1.5625
v -7.8125 4.6875 4.6875
# 8 vertices

vn 0 0 -1
vn 1 0 0
vn 0 0 1
vn -1 0 0
vn 0 1 0
vn 0 -1 0
# 6 vertex normals

vt 0.59375 0.546875 0
vt 0.65625 0.546875 0
vt 0.65625 0.5625 0
vt 0.59375 0.5625 0
vt 0.53125 0.546875 0
vt 0.59375 0.546875 0
vt 0.59375 0.5625 0
vt 0.53125 0.5625 0
vt 0.71875 0.546875 0
vt 0.78125 0.546875 0
vt 0.78125 0.5625 0
vt 0.71875 0.5625 0
vt 0.65625 0.546875 0
vt 0.71875 0.546875 0
vt 0.71875 0.5625 0
vt 0.65625 0.5625 0
vt 0.65625 0.625 0
vt 0.59375 0.625 0
vt 0.59375 0.5625 0
vt 0.65625 0.5625 0
vt 0.71875 0.5625 0
vt 0.65625 0.5625 0
vt 0.65625 0.625 0
vt 0.71875 0.625 0
# 24 texture coords

usemtl texture.png Pogo.png
s 16
f 36/97/25 39/98/25 37/99/25 34/100/25
f 35/101/26 36/102/26 34/103/26 33/104/26
f 40/105/27 35/106/27 33/107/27 38/108/27
f 39/109/28 40/110/28 38/111/28 37/112/28
f 38/113/29 33/114/29 34/115/29 37/116/29
f 39/117/30 36/118/30 35/119/30 40/120/30
#6 polygons

g cube_5

#
# object cube_5
#

v 16.564634 11.859679 1.5625
v 16.564634 11.859679 -3.125
v 12.9738 8.846612 1.5625
v 12.9738 8.846612 -3.125
v 9.534143 20.23829 -3.125
v 9.534143 20.23829 1.5625
v 5.9433107 17.225224 -3.125
v 5.9433107 17.225224 1.5625
# 8 vertices

vn 0 0 -1
vn 0.64278764 -0.76604444 0
vn 0 0 1
vn -0.64278764 0.76604444 0
vn 0.76604444 0.64278764 0
vn -0.76604444 -0.64278764 0
# 6 vertex normals

vt 0.359375 0.390625 0
vt 0.46875 0.390625 0
vt 0.46875 0.4375 0
vt 0.359375 0.4375 0
vt 0.3125 0.390625 0
vt 0.359375 0.390625 0
vt 0.359375 0.4375 0
vt 0.3125 0.4375 0
vt 0.515625 0.390625 0
vt 0.625 0.390625 0
vt 0.625 0.4375 0
vt 0.515625 0.4375 0
vt 0.46875 0.390625 0
vt 0.515625 0.390625 0
vt 0.515625 0.4375 0
vt 0.46875 0.4375 0
vt 0.46875 0.484375 0
vt 0.359375 0.484375 0
vt 0.359375 0.4375 0
vt 0.46875 0.4375 0
vt 0.578125 0.4375 0
vt 0.46875 0.4375 0
vt 0.46875 0.484375 0
vt 0.578125 0.484375 0
# 24 texture coords

usemtl texture.png Pogo.png
s 32
f 44/121/31 47/122/31 45/123/31 42/124/31
f 43/125/32 44/126/32 42/127/32 41/128/32
f 48/129/33 43/130/33 41/131/33 46/132/33
f 47/133/34 48/134/34 46/135/34 45/136/34
f 46/137/35 41/138/35 42/139/35 45/140/35
f 47/141/36 44/142/36 43/143/36 48/144/36
#6 polygons

g cube_6

#
# object cube_6
#

v -9.534143 20.23829 1.5625
v -9.534143 20.23829 -3.125
v -5.9433107 17.225224 1.5625
v -5.9433107 17.225224 -3.125
v -16.564634 11.859679 -3.125
v -16.564634 11.859679 1.5625
v -12.9738 8.846612 -3.125
v -12.9738 8.846612 1.5625
# 8 vertices

vn 0 0 -1
vn 0.64278764 0.76604444 0
vn 0 0 1
vn -0.64278764 -0.76604444 0
vn -0.76604444 0.64278764 0
vn 0.76604444 -0.64278764 0
# 6 vertex normals

vt 0.046875 0.390625 0
vt 0.15625 0.390625 0
vt 0.15625 0.4375 0
vt 0.046875 0.4375 0
vt 0 0.390625 0
vt 0.046875 0.390625 0
vt 0.046875 0.4375 0
vt 0 0.4375 0
vt 0.203125 0.390625 0
vt 0.3125 0.390625 0
vt 0.3125 0.4375 0
vt 0.203125 0.4375 0
vt 0.15625 0.390625 0
vt 0.203125 0.390625 0
vt 0.203125 0.4375 0
vt 0.15625 0.4375 0
vt 0.15625 0.484375 0
vt 0.046875 0.484375 0
vt 0.046875 0.4375 0
vt 0.15625 0.4375 0
vt 0.265625 0.4375 0
vt 0.15625 0.4375 0
vt 0.15625 0.484375 0
vt 0.265625 0.484375 0
# 24 texture coords

usemtl texture.png Pogo.png
s 64
f 52/145/37 55/146/37 53/147/37 50/148/37
f 51/149/38 52/150/38 50/151/38 49/152/38
f 56/153/39 51/154/39 49/155/39 54/156/39
f 55/157/40 56/158/40 54/159/40 53/160/40
f 54/161/41 49/162/41 50/163/41 53/164/41
f 55/165/42 52/166/42 51/167/42 56/168/42
#6 polygons

g cube_7

#
# object cube_7
#

v 8.376726 31.76369 3.125
v 8.376726 31.76369 -1.5625
v 5.0877566 21.33241 3.125
v 5.0877566 21.33241 -1.5625
v 3.906178 33.17325 -1.5625
v 3.906178 33.17325 3.125
v 0.6172084 22.74197 -1.5625
v 0.6172084 22.74197 3.125
# 8 vertices

vn 0 0 -1
vn 0.95371693 -0.3007058 0
vn 0 0 1
vn -0.95371693 0.3007058 0
vn 0.3007058 0.95371693 0
vn -0.3007058 -0.95371693 0
# 6 vertex normals

vt 0.046875 0.234375 0
vt 0.09375 0.234375 0
vt 0.09375 0.34375 0
vt 0.046875 0.34375 0
vt 0 0.234375 0
vt 0.046875 0.234375 0
vt 0.046875 0.34375 0
vt 0 0.34375 0
vt 0.140625 0.234375 0
vt 0.1875 0.234375 0
vt 0.1875 0.34375 0
vt 0.140625 0.34375 0
vt 0.09375 0.234375 0
vt 0.140625 0.234375 0
vt 0.140625 0.34375 0
vt 0.09375 0.34375 0
vt 0.09375 0.390625 0
vt 0.046875 0.390625 0
vt 0.046875 0.34375 0
vt 0.09375 0.34375 0
vt 0.140625 0.34375 0
vt 0.09375 0.34375 0
vt 0.09375 0.390625 0
vt 0.140625 0.390625 0
# 24 texture coords

usemtl texture.png Pogo.png
s 128
f 60/169/43 63/170/43 61/171/43 58/172/43
f 59/173/44 60/174/44 58/175/44 57/176/44
f 64/177/45 59/178/45 57/179/45 62/180/45
f 63/181/46 64/182/46 62/183/46 61/184/46
f 62/185/47 57/186/47 58/187/47 61/188/47
f 63/189/48 60/190/48 59/191/48 64/192/48
#6 polygons

g cube_8

#
# object cube_8
#

v 12.686026 40.234936 3.125
v 12.686026 40.234936 -1.5625
v 9.866909 31.293837 3.125
v 9.866909 31.293837 -1.5625
v 6.725295 42.114346 -1.5625
v 6.725295 42.114346 3.125
v 3.906178 33.17325 -1.5625
v 3.906178 33.17325 3.125
# 8 vertices

vn 0 0 -1
vn 0.95371693 -0.3007058 0
vn 0 0 1
vn -0.95371693 0.3007058 0
vn 0.3007058 0.95371693 0
vn -0.3007058 -0.95371693 0
# 6 vertex normals

vt 0.625 0.296875 0
vt 0.6875 0.296875 0
vt 0.6875 0.390625 0
vt 0.625 0.390625 0
vt 0.578125 0.296875 0
vt 0.625 0.296875 0
vt 0.625 0.390625 0
vt 0.578125 0.390625 0
vt 0.734375 0.296875 0
vt 0.796875 0.296875 0
vt 0.796875 0.390625 0
vt 0.734375 0.390625 0
vt 0.6875 0.296875 0
vt 0.734375 0.296875 0
vt 0.734375 0.390625 0
vt 0.6875 0.390625 0
vt 0.6875 0.4375 0
vt 0.625 0.4375 0
vt 0.625 0.390625 0
vt 0.6875 0.390625 0
vt 0.75 0.390625 0
vt 0.6875 0.390625 0
vt 0.6875 0.4375 0
vt 0.75 0.4375 0
# 24 texture coords

usemtl texture.png Pogo.png
s 256
f 68/193/49 71/194/49 69/195/49 66/196/49
f 67/197/50 68/198/50 66/199/50 65/200/50
f 72/201/51 67/202/51 65/203/51 70/204/51
f 71/205/52 72/206/52 70/207/52 69/208/52
f 70/209/53 65/210/53 66/211/53 69/212/53
f 71/213/54 68/214/54 67/215/54 72/216/54
#6 polygons

g cube_9

#
# object cube_9
#

v -3.906178 33.17325 3.125
v -3.906178 33.17325 -1.5625
v -0.6172084 22.74197 3.125
v -0.6172084 22.74197 -1.5625
v -8.376726 31.76369 -1.5625
v -8.376726 31.76369 3.125
v -5.0877566 21.33241 -1.5625
v -5.0877566 21.33241 3.125
# 8 vertices

vn 0 0 -1
vn 0.95371693 0.3007058 0
vn 0 0 1
vn -0.95371693 -0.3007058 0
vn -0.3007058 0.95371693 0
vn 0.3007058 -0.95371693 0
# 6 vertex normals

vt 0.046875 0.84375 0
vt 0.09375 0.84375 0
vt 0.09375 0.953125 0
vt 0.046875 0.953125 0
vt 0 0.84375 0
vt 0.046875 0.84375 0
vt 0.046875 0.953125 0
vt 0 0.953125 0
vt 0.140625 0.84375 0
vt 0.1875 0.84375 0
vt 0.1875 0.953125 0
vt 0.140625 0.953125 0
vt 0.09375 0.84375 0
vt 0.140625 0.84375 0
vt 0.140625 0.953125 0
vt 0.09375 0.953125 0
vt 0.09375 1 0
vt 0.046875 1 0
vt 0.046875 0.953125 0
vt 0.09375 0.953125 0
vt 0.140625 0.953125 0
vt 0.09375 0.953125 0
vt 0.09375 1 0
vt 0.140625 1 0
# 24 texture coords

usemtl texture.png Pogo.png
s 512
f 76/217/55 79/218/55 77/219/55 74/220/55
f 75/221/56 76/222/56 74/223/56 73/224/56
f 80/225/57 75/226/57 73/227/57 78/228/57
f 79/229/58 80/230/58 78/231/58 77/232/58
f 78/233/59 73/234/59 74/235/59 77/236/59
f 79/237/60 76/238/60 75/239/60 80/240/60
#6 polygons

g cube_10

#
# object cube_10
#

v -6.725295 42.114346 3.125
v -6.725295 42.114346 -1.5625
v -3.906178 33.17325 3.125
v -3.906178 33.17325 -1.5625
v -12.686026 40.234936 -1.5625
v -12.686026 40.234936 3.125
v -9.866909 31.293837 -1.5625
v -9.866909 31.293837 3.125
# 8 vertices

vn 0 0 -1
vn 0.95371693 0.3007058 0
vn 0 0 1
vn -0.95371693 -0.3007058 0
vn -0.3007058 0.95371693 0
vn 0.3007058 -0.95371693 0
# 6 vertex normals

vt 0.609375 0.859375 0
vt 0.671875 0.859375 0
vt 0.671875 0.953125 0
vt 0.609375 0.953125 0
vt 0.5625 0.859375 0
vt 0.609375 0.859375 0
vt 0.609375 0.953125 0
vt 0.5625 0.953125 0
vt 0.71875 0.859375 0
vt 0.78125 0.859375 0
vt 0.78125 0.953125 0
vt 0.71875 0.953125 0
vt 0.671875 0.859375 0
vt 0.71875 0.859375 0
vt 0.71875 0.953125 0
vt 0.671875 0.953125 0
vt 0.671875 1 0
vt 0.609375 1 0
vt 0.609375 0.953125 0
vt 0.671875 0.953125 0
vt 0.734375 0.953125 0
vt 0.671875 0.953125 0
vt 0.671875 1 0
vt 0.734375 1 0
# 24 texture coords

usemtl texture.png Pogo.png
s 1024
f 84/241/61 87/242/61 85/243/61 82/244/61
f 83/245/62 84/246/62 82/247/62 81/248/62
f 88/249/63 83/250/63 81/251/63 86/252/63
f 87/253/64 88/254/64 86/255/64 85/256/64
f 86/257/65 81/258/65 82/259/65 85/260/65
f 87/261/66 84/262/66 83/263/66 88/264/66
#6 polygons

g cube_11

#
# object cube_11
#

v 1.5625 17.1875 -9.375
v 1.5625 17.1875 -10.9375
v 1.5625 14.0625 -9.375
v 1.5625 14.0625 -10.9375
v -1.5625 17.1875 -10.9375
v -1.5625 17.1875 -9.375
v -1.5625 14.0625 -10.9375
v -1.5625 14.0625 -9.375
# 8 vertices

vn 0 0 -1
vn 1 0 0
vn 0 0 1
vn -1 0 0
vn 0 1 0
vn 0 -1 0
# 6 vertex normals

vt 0.90625 0 0
vt 0.9375 0 0
vt 0.9375 0.03125 0
vt 0.90625 0.03125 0
vt 0.890625 0 0
vt 0.90625 0 0
vt 0.90625 0.03125 0
vt 0.890625 0.03125 0
vt 0.953125 0 0
vt 0.984375 0 0
vt 0.984375 0.03125 0
vt 0.953125 0.03125 0
vt 0.9375 0 0
vt 0.953125 0 0
vt 0.953125 0.03125 0
vt 0.9375 0.03125 0
vt 0.9375 0.046875 0
vt 0.90625 0.046875 0
vt 0.90625 0.03125 0
vt 0.9375 0.03125 0
vt 0.96875 0.03125 0
vt 0.9375 0.03125 0
vt 0.9375 0.046875 0
vt 0.96875 0.046875 0
# 24 texture coords

usemtl texture.png Pogo.png
s 2048
f 92/265/67 95/266/67 93/267/67 90/268/67
f 91/269/68 92/270/68 90/271/68 89/272/68
f 96/273/69 91/274/69 89/275/69 94/276/69
f 95/277/70 96/278/70 94/279/70 93/280/70
f 94/281/71 89/282/71 90/283/71 93/284/71
f 95/285/72 92/286/72 91/287/72 96/288/72
#6 polygons

